<svg width="60" height="61" viewBox="0 0 60 61" fill="none" xmlns="http://www.w3.org/2000/svg">
<path fill-rule="evenodd" clip-rule="evenodd" d="M9.49988 25.5511C9.49988 16.7146 16.6633 9.55115 25.4999 9.55115C34.3364 9.55115 41.4999 16.7146 41.4999 25.5511C41.4999 34.3877 34.3364 41.5511 25.4999 41.5511C16.6633 41.5511 9.49988 34.3877 9.49988 25.5511ZM25.4999 1.55115C12.245 1.55115 1.49988 12.2963 1.49988 25.5511C1.49988 38.806 12.245 49.5511 25.4999 49.5511C30.1349 49.5511 34.463 48.2372 38.1321 45.9616L49.1108 56.9402C51.2587 59.0881 54.7411 59.0881 56.889 56.9402C59.0368 54.7924 59.0368 51.3099 56.889 49.1621L45.9103 38.1834C48.186 34.5143 49.4999 30.1862 49.4999 25.5511C49.4999 12.2963 38.7547 1.55115 25.4999 1.55115Z" fill="black"/>
</svg>
