<svg width="164" height="164" viewBox="0 0 164 164" fill="none" xmlns="http://www.w3.org/2000/svg">
<g clip-path="url(#clip0_2_1069)">
<path d="M65.6447 78.0102C65.958 77.2272 66.8467 76.8464 67.6297 77.1596C68.4127 77.4728 68.7936 78.3615 68.4803 79.1446L66.4321 84.2648L69.7866 83.055C70.5744 82.7709 71.4515 83.1762 71.7456 83.9603C72.0398 84.7443 71.6396 85.6102 70.8518 85.8943L64.9252 88.0317L62.3853 94.3809L69.5893 93.3839L72.8567 88.5312C73.3223 87.8397 74.2685 87.6578 74.9702 88.1249C75.6718 88.592 75.8631 89.5313 75.3975 90.2227L73.6472 92.8223L78.7434 92.117C79.5709 92.0025 80.3419 92.5794 80.4656 93.4054C80.5893 94.2315 80.0188 94.994 79.1914 95.1085L73.6815 95.8711L76.3988 98.1181C77.0484 98.6552 77.1404 99.6082 76.6044 100.247C76.0683 100.885 75.1071 100.967 74.4576 100.43L69.6236 96.4326L62.9633 97.3544L67.4806 103.03L73.3285 103.441C74.1693 103.5 74.8087 104.223 74.7565 105.055C74.7044 105.887 73.9805 106.513 73.1397 106.454L70.0317 106.236L73.2134 110.234C73.7335 110.887 73.6207 111.833 72.9614 112.346C72.3021 112.858 71.3459 112.744 70.8258 112.091L67.34 107.711L66.7465 111.2C66.6068 112.022 65.8204 112.57 64.9902 112.425C64.16 112.279 63.6003 111.495 63.7401 110.673L64.789 104.506L60.494 99.1089L57.7733 105.91L60.408 111.18C60.7824 111.929 60.475 112.832 59.7212 113.197C58.9675 113.562 58.0529 113.25 57.6784 112.501L56.2665 109.677L54.3848 114.381C54.0716 115.164 53.1829 115.544 52.3999 115.231C51.6169 114.918 51.236 114.029 51.5493 113.246L53.5844 108.159L50.2795 109.351C49.4918 109.635 48.6147 109.229 48.3206 108.445C48.0264 107.661 48.4266 106.795 49.2144 106.511L55.0913 104.392L57.6101 98.0952L50.2942 99.1077L47.0563 103.917C46.5907 104.608 45.6445 104.79 44.9428 104.323C44.2412 103.856 44.0499 102.917 44.5155 102.225L46.2363 99.6693L41.1754 100.37C40.348 100.484 39.5769 99.9074 39.4532 99.0813C39.3295 98.2552 39.9 97.4927 40.7274 97.3782L46.2724 96.6108L43.5141 94.3299C42.8645 93.7928 42.7725 92.8398 43.3085 92.2014C43.8446 91.563 44.8058 91.4809 45.4553 92.0181L50.3303 96.0492L57.2922 95.0857L52.6815 89.2925L46.781 88.878C45.9402 88.819 45.3008 88.0966 45.3529 87.2646C45.4051 86.4326 46.1289 85.8061 46.9698 85.8651L50.1305 86.0872L46.9269 82.0617C46.4067 81.4082 46.5195 80.4626 47.1788 79.9498C47.8382 79.4369 48.7943 79.551 49.3145 80.2046L52.7782 84.5568L53.3629 81.119C53.5027 80.2972 54.289 79.7491 55.1192 79.8947C55.9494 80.0404 56.5091 80.8247 56.3693 81.6465L55.3292 87.7621L59.598 93.1259L62.2693 86.4482L59.6583 81.2257C59.2838 80.4767 59.5913 79.5737 60.345 79.2088C61.0988 78.8439 62.0134 79.1553 62.3879 79.9044L63.7762 82.6813L65.6447 78.0102Z" fill="#64D2FF"/>
<path d="M76.3237 110.08C76.1779 109.73 75.9813 109.394 75.7325 109.082L75.6299 108.954C76.8848 108.314 77.7907 107.054 77.8851 105.52C77.9342 104.721 77.7553 103.966 77.407 103.313C78.0746 103.075 78.6912 102.663 79.1846 102.076C80.2491 100.812 80.4147 99.1281 79.8016 97.7356L80.2193 97.6785C82.5132 97.3648 84.1011 95.2423 83.7544 92.9532C83.4121 90.6931 81.311 89.1211 79.0462 89.4308L78.7883 89.4661C78.882 88.0169 78.2052 86.5667 76.9258 85.7163C76.2591 85.2732 75.5043 85.0432 74.7494 85.016C74.9162 84.2584 74.8722 83.4446 74.5769 82.6619C73.9906 81.1079 72.5725 80.1016 71.0155 79.963L71.1695 79.578C72.028 77.432 70.9843 74.9964 68.8383 74.138C66.6923 73.2795 64.2567 74.3232 63.3983 76.4692L63.3457 76.6007C62.1509 75.8104 60.5819 75.6511 59.2034 76.3152C58.4723 76.6674 57.8921 77.2041 57.4913 77.8418C56.9169 77.3145 56.1913 76.9413 55.3768 76.7978C53.7671 76.5141 52.183 77.1927 51.2702 78.4487L50.9492 78.0467C49.5228 76.2605 46.9172 75.9496 45.1105 77.35C43.2807 78.7685 42.9666 81.4006 44.4113 83.2098L44.5188 83.3443C43.2449 83.9787 42.3221 85.2481 42.2269 86.7964C42.1762 87.6191 42.3673 88.3947 42.7358 89.0603C41.9787 89.2808 41.2747 89.719 40.724 90.3733C39.6498 91.6496 39.491 93.3525 40.1242 94.7524L39.6954 94.811C39.6068 94.8231 39.5193 94.8379 39.4329 94.8553C29.6143 88.59 25.3145 76.0415 29.7992 64.8303C34.8727 52.1478 49.2667 45.9793 61.9493 51.0527C64.6993 52.1528 67.143 53.6911 69.2323 55.5551C78.7718 45.6901 93.684 42.016 107.213 47.428C125.069 54.5708 133.753 74.8361 126.61 92.6919C126.296 93.4785 125.956 94.2473 125.591 94.9977C129.996 99.644 131.561 106.602 129.027 112.937C125.556 121.614 115.707 125.835 107.03 122.363L76.3237 110.08Z" fill="white"/>
</g>
<defs>
<clipPath id="clip0_2_1069">
<rect width="125.711" height="125.711" fill="white" transform="translate(47.2096 0.153564) rotate(21.8029)"/>
</clipPath>
</defs>
</svg>
